<svg id="ggID" xmlns="http://www.w3.org/2000/svg" xmlns:xlink="http://www.w3.org/1999/xlink" viewBox="0 0 720 576">
	<defs></defs>
	<clipPath id="ggID">
		<rect x="0" y="0" width="720" height="576" />
	</clipPath>
	<rect class="plot" width="100%" height="100%"></rect>
	<defs>
		<clipPath id="ggID">
			<rect x="0" y="0" width="720" height="576" />
		</clipPath>
		<clipPath id="ggID">
			<rect x="20" y="0" width="700" height="556" />
		</clipPath>
	</defs>
	<rect class="panel" x="20" y="0" width="700" height="556" />
	<line class="x-break" x1="-11.81818181818182" x2="-11.81818181818182" y1="0" y2="556" clip-path="url(#ggID)" />
	<line class="x-break" x1="115.45454545454545" x2="115.45454545454545" y1="0" y2="556" clip-path="url(#ggID)" />
	<line class="x-break" x1="242.72727272727272" x2="242.72727272727272" y1="0" y2="556" clip-path="url(#ggID)" />
	<line class="x-break" x1="370" x2="370" y1="0" y2="556" clip-path="url(#ggID)" />
	<line class="x-break" x1="497.27272727272725" x2="497.27272727272725" y1="0" y2="556" clip-path="url(#ggID)" />
	<line class="x-break" x1="624.5454545454545" x2="624.5454545454545" y1="0" y2="556" clip-path="url(#ggID)" />
	<line class="x-break" x1="751.8181818181818" x2="751.8181818181818" y1="0" y2="556" clip-path="url(#ggID)" />
	<line class="x-minor-break" x1="51.81818181818182" x2="51.81818181818182" y1="0" y2="556" clip-path="url(#ggID)" />
	<line class="x-minor-break" x1="179.0909090909091" x2="179.0909090909091" y1="0" y2="556" clip-path="url(#ggID)" />
	<line class="x-minor-break" x1="306.3636363636364" x2="306.3636363636364" y1="0" y2="556" clip-path="url(#ggID)" />
	<line class="x-minor-break" x1="433.6363636363637" x2="433.6363636363637" y1="0" y2="556" clip-path="url(#ggID)" />
	<line class="x-minor-break" x1="560.9090909090909" x2="560.9090909090909" y1="0" y2="556" clip-path="url(#ggID)" />
	<line class="x-minor-break" x1="688.1818181818182" x2="688.1818181818182" y1="0" y2="556" clip-path="url(#ggID)" />
	<text class="x-break-label" x="115.45454545454545" y="576" text-anchor="middle" font-size="0.75em" clip-path="url(#ggID)">1</text>
	<text class="x-break-label" x="242.72727272727272" y="576" text-anchor="middle" font-size="0.75em" clip-path="url(#ggID)">2</text>
	<text class="x-break-label" x="370" y="576" text-anchor="middle" font-size="0.75em" clip-path="url(#ggID)">3</text>
	<text class="x-break-label" x="497.27272727272725" y="576" text-anchor="middle" font-size="0.75em" clip-path="url(#ggID)">4</text>
	<text class="x-break-label" x="624.5454545454545" y="576" text-anchor="middle" font-size="0.75em" clip-path="url(#ggID)">5</text>
	<line class="y-break" x1="20" x2="720" y1="586.8888888888889" y2="586.8888888888889" clip-path="url(#ggID)" />
	<line class="y-break" x1="20" x2="720" y1="474.5656565656566" y2="474.5656565656566" clip-path="url(#ggID)" />
	<line class="y-break" x1="20" x2="720" y1="362.2424242424243" y2="362.2424242424243" clip-path="url(#ggID)" />
	<line class="y-break" x1="20" x2="720" y1="249.91919191919192" y2="249.91919191919192" clip-path="url(#ggID)" />
	<line class="y-break" x1="20" x2="720" y1="137.59595959595956" y2="137.59595959595956" clip-path="url(#ggID)" />
	<line class="y-break" x1="20" x2="720" y1="25.272727272727252" y2="25.272727272727252" clip-path="url(#ggID)" />
	<line class="y-minor-break" x1="20" x2="720" y1="530.7272727272727" y2="530.7272727272727" clip-path="url(#ggID)" />
	<line class="y-minor-break" x1="20" x2="720" y1="418.4040404040404" y2="418.4040404040404" clip-path="url(#ggID)" />
	<line class="y-minor-break" x1="20" x2="720" y1="306.0808080808081" y2="306.0808080808081" clip-path="url(#ggID)" />
	<line class="y-minor-break" x1="20" x2="720" y1="193.75757575757578" y2="193.75757575757578" clip-path="url(#ggID)" />
	<line class="y-minor-break" x1="20" x2="720" y1="81.4343434343434" y2="81.4343434343434" clip-path="url(#ggID)" />
	<line class="y-minor-break" x1="20" x2="720" y1="-30.888888888888903" y2="-30.888888888888903" clip-path="url(#ggID)" />
	<text class="y-break-label" x="16" y="477.5656565656566" text-anchor="end" font-size="0.75em" clip-path="url(#ggID)">10</text>
	<text class="y-break-label" x="16" y="365.2424242424243" text-anchor="end" font-size="0.75em" clip-path="url(#ggID)">11</text>
	<text class="y-break-label" x="16" y="252.91919191919192" text-anchor="end" font-size="0.75em" clip-path="url(#ggID)">12</text>
	<text class="y-break-label" x="16" y="140.59595959595956" text-anchor="end" font-size="0.75em" clip-path="url(#ggID)">13</text>
	<text class="y-break-label" x="16" y="28.272727272727252" text-anchor="end" font-size="0.75em" clip-path="url(#ggID)">14</text>
	<line x1="51.81818181818182" y1="474.5656565656566" x2="115.45454545454545" y2="474.5656565656566" class="" stroke-width="1.07" stroke="#23d0fc" stroke-opacity="1" stroke-dasharray="1 0" clip-path="url(#ggID)" />
	<line x1="115.45454545454545" y1="530.7272727272727" x2="115.45454545454545" y2="249.91919191919192" class="" stroke-width="1.07" stroke="#23d0fc" stroke-opacity="1" stroke-dasharray="1 0" clip-path="url(#ggID)" />
	<line x1="115.45454545454545" y1="306.0808080808081" x2="179.0909090909091" y2="306.0808080808081" class="" stroke-width="1.07" stroke="#23d0fc" stroke-opacity="1" stroke-dasharray="1 0" clip-path="url(#ggID)" />
	<line x1="179.0909090909091" y1="306.0808080808081" x2="242.72727272727272" y2="306.0808080808081" class="" stroke-width="1.07" stroke="#23d0fc" stroke-opacity="1" stroke-dasharray="1 0" clip-path="url(#ggID)" />
	<line x1="242.72727272727272" y1="362.2424242424243" x2="242.72727272727272" y2="137.59595959595956" class="" stroke-width="1.07" stroke="#23d0fc" stroke-opacity="1" stroke-dasharray="1 0" clip-path="url(#ggID)" />
	<line x1="242.72727272727272" y1="193.75757575757578" x2="306.3636363636364" y2="193.75757575757578" class="" stroke-width="1.07" stroke="#23d0fc" stroke-opacity="1" stroke-dasharray="1 0" clip-path="url(#ggID)" />
	<line x1="306.3636363636364" y1="193.75757575757578" x2="370" y2="193.75757575757578" class="" stroke-width="1.07" stroke="#23d0fc" stroke-opacity="1" stroke-dasharray="1 0" clip-path="url(#ggID)" />
	<line x1="370" y1="418.4040404040404" x2="370" y2="160.06060606060598" class="" stroke-width="1.07" stroke="#23d0fc" stroke-opacity="1" stroke-dasharray="1 0" clip-path="url(#ggID)" />
	<line x1="370" y1="384.70707070707067" x2="433.6363636363637" y2="384.70707070707067" class="" stroke-width="1.07" stroke="#23d0fc" stroke-opacity="1" stroke-dasharray="1 0" clip-path="url(#ggID)" />
	<line x1="433.6363636363637" y1="384.70707070707067" x2="497.27272727272725" y2="384.70707070707067" class="" stroke-width="1.07" stroke="#23d0fc" stroke-opacity="1" stroke-dasharray="1 0" clip-path="url(#ggID)" />
	<line x1="497.27272727272725" y1="452.1010101010102" x2="497.27272727272725" y2="306.0808080808081" class="" stroke-width="1.07" stroke="#23d0fc" stroke-opacity="1" stroke-dasharray="1 0" clip-path="url(#ggID)" />
	<line x1="497.27272727272725" y1="339.7777777777779" x2="560.9090909090909" y2="339.7777777777779" class="" stroke-width="1.07" stroke="#23d0fc" stroke-opacity="1" stroke-dasharray="1 0" clip-path="url(#ggID)" />
	<line x1="560.9090909090909" y1="339.7777777777779" x2="624.5454545454545" y2="339.7777777777779" class="" stroke-width="1.07" stroke="#23d0fc" stroke-opacity="1" stroke-dasharray="1 0" clip-path="url(#ggID)" />
	<line x1="624.5454545454545" y1="362.2424242424243" x2="624.5454545454545" y2="25.272727272727252" class="" stroke-width="1.07" stroke="#23d0fc" stroke-opacity="1" stroke-dasharray="1 0" clip-path="url(#ggID)" />
	<line x1="624.5454545454545" y1="47.737373737373616" x2="688.1818181818182" y2="47.737373737373616" class="" stroke-width="1.07" stroke="#23d0fc" stroke-opacity="1" stroke-dasharray="1 0" clip-path="url(#ggID)" />
</svg>